<mxfile host="Electron" modified="2023-11-22T11:21:34.347Z" agent="Mozilla/5.0 (Windows NT 10.0; Win64; x64) AppleWebKit/537.36 (KHTML, like Gecko) draw.io/22.0.3 Chrome/114.0.5735.289 Electron/25.8.4 Safari/537.36" etag="ug7Tkjp6eKAL-G91g-C5" version="22.0.3" type="device">
  <diagram name="Pagina-1" id="9CeXrcGV4RyxHOKEBmnJ">
    <mxGraphModel dx="1050" dy="621" grid="1" gridSize="10" guides="1" tooltips="1" connect="1" arrows="1" fold="1" page="1" pageScale="1" pageWidth="827" pageHeight="1169" math="0" shadow="0">
      <root>
        <mxCell id="0" />
        <mxCell id="1" parent="0" />
        <mxCell id="7ZvHlYjhylcXqzKmYskj-4" style="edgeStyle=orthogonalEdgeStyle;rounded=0;orthogonalLoop=1;jettySize=auto;html=1;" edge="1" parent="1" target="7ZvHlYjhylcXqzKmYskj-2">
          <mxGeometry relative="1" as="geometry">
            <mxPoint x="410" y="170" as="sourcePoint" />
          </mxGeometry>
        </mxCell>
        <mxCell id="7ZvHlYjhylcXqzKmYskj-1" value="START" style="ellipse;whiteSpace=wrap;html=1;" vertex="1" parent="1">
          <mxGeometry x="350" width="120" height="80" as="geometry" />
        </mxCell>
        <mxCell id="7ZvHlYjhylcXqzKmYskj-5" style="edgeStyle=orthogonalEdgeStyle;rounded=0;orthogonalLoop=1;jettySize=auto;html=1;" edge="1" parent="1" source="7ZvHlYjhylcXqzKmYskj-2" target="7ZvHlYjhylcXqzKmYskj-3">
          <mxGeometry relative="1" as="geometry" />
        </mxCell>
        <mxCell id="7ZvHlYjhylcXqzKmYskj-2" value="Vraag om een naam" style="whiteSpace=wrap;html=1;aspect=fixed;" vertex="1" parent="1">
          <mxGeometry x="370" y="200" width="80" height="80" as="geometry" />
        </mxCell>
        <mxCell id="7ZvHlYjhylcXqzKmYskj-8" style="edgeStyle=orthogonalEdgeStyle;rounded=0;orthogonalLoop=1;jettySize=auto;html=1;entryX=0;entryY=0.5;entryDx=0;entryDy=0;" edge="1" parent="1" source="7ZvHlYjhylcXqzKmYskj-3" target="7ZvHlYjhylcXqzKmYskj-7">
          <mxGeometry relative="1" as="geometry" />
        </mxCell>
        <mxCell id="7ZvHlYjhylcXqzKmYskj-19" style="edgeStyle=orthogonalEdgeStyle;rounded=0;orthogonalLoop=1;jettySize=auto;html=1;" edge="1" parent="1" source="7ZvHlYjhylcXqzKmYskj-3" target="7ZvHlYjhylcXqzKmYskj-13">
          <mxGeometry relative="1" as="geometry" />
        </mxCell>
        <mxCell id="7ZvHlYjhylcXqzKmYskj-31" value="Nee" style="edgeLabel;html=1;align=center;verticalAlign=middle;resizable=0;points=[];" vertex="1" connectable="0" parent="7ZvHlYjhylcXqzKmYskj-19">
          <mxGeometry x="-0.424" relative="1" as="geometry">
            <mxPoint as="offset" />
          </mxGeometry>
        </mxCell>
        <mxCell id="7ZvHlYjhylcXqzKmYskj-29" value="" style="edgeStyle=orthogonalEdgeStyle;rounded=0;orthogonalLoop=1;jettySize=auto;html=1;" edge="1" parent="1" source="7ZvHlYjhylcXqzKmYskj-3" target="7ZvHlYjhylcXqzKmYskj-7">
          <mxGeometry relative="1" as="geometry" />
        </mxCell>
        <mxCell id="7ZvHlYjhylcXqzKmYskj-30" value="Ja" style="edgeLabel;html=1;align=center;verticalAlign=middle;resizable=0;points=[];" vertex="1" connectable="0" parent="7ZvHlYjhylcXqzKmYskj-29">
          <mxGeometry x="0.0215" y="-3" relative="1" as="geometry">
            <mxPoint as="offset" />
          </mxGeometry>
        </mxCell>
        <mxCell id="7ZvHlYjhylcXqzKmYskj-3" value="als de naam in de lijst zit" style="rhombus;whiteSpace=wrap;html=1;" vertex="1" parent="1">
          <mxGeometry x="355" y="320" width="110" height="110" as="geometry" />
        </mxCell>
        <mxCell id="7ZvHlYjhylcXqzKmYskj-6" style="edgeStyle=orthogonalEdgeStyle;rounded=0;orthogonalLoop=1;jettySize=auto;html=1;exitX=0.5;exitY=1;exitDx=0;exitDy=0;" edge="1" parent="1" source="7ZvHlYjhylcXqzKmYskj-3" target="7ZvHlYjhylcXqzKmYskj-3">
          <mxGeometry relative="1" as="geometry" />
        </mxCell>
        <mxCell id="7ZvHlYjhylcXqzKmYskj-12" style="edgeStyle=orthogonalEdgeStyle;rounded=0;orthogonalLoop=1;jettySize=auto;html=1;entryX=1;entryY=0.5;entryDx=0;entryDy=0;" edge="1" parent="1" source="7ZvHlYjhylcXqzKmYskj-7" target="7ZvHlYjhylcXqzKmYskj-2">
          <mxGeometry relative="1" as="geometry">
            <Array as="points">
              <mxPoint x="590" y="240" />
            </Array>
          </mxGeometry>
        </mxCell>
        <mxCell id="7ZvHlYjhylcXqzKmYskj-7" value="Zeg deze naam zit al i de lijst" style="rounded=1;whiteSpace=wrap;html=1;" vertex="1" parent="1">
          <mxGeometry x="530" y="345" width="120" height="60" as="geometry" />
        </mxCell>
        <mxCell id="7ZvHlYjhylcXqzKmYskj-20" style="edgeStyle=orthogonalEdgeStyle;rounded=0;orthogonalLoop=1;jettySize=auto;html=1;" edge="1" parent="1" source="7ZvHlYjhylcXqzKmYskj-13" target="7ZvHlYjhylcXqzKmYskj-15">
          <mxGeometry relative="1" as="geometry" />
        </mxCell>
        <mxCell id="7ZvHlYjhylcXqzKmYskj-13" value="Naam toegevoegt in de lijst" style="rounded=1;whiteSpace=wrap;html=1;" vertex="1" parent="1">
          <mxGeometry x="355" y="450" width="120" height="60" as="geometry" />
        </mxCell>
        <mxCell id="7ZvHlYjhylcXqzKmYskj-21" style="edgeStyle=orthogonalEdgeStyle;rounded=0;orthogonalLoop=1;jettySize=auto;html=1;entryX=0;entryY=0.5;entryDx=0;entryDy=0;" edge="1" parent="1" source="7ZvHlYjhylcXqzKmYskj-15" target="7ZvHlYjhylcXqzKmYskj-2">
          <mxGeometry relative="1" as="geometry">
            <Array as="points">
              <mxPoint x="290" y="600" />
              <mxPoint x="290" y="240" />
            </Array>
          </mxGeometry>
        </mxCell>
        <mxCell id="7ZvHlYjhylcXqzKmYskj-23" value="False" style="edgeLabel;html=1;align=center;verticalAlign=middle;resizable=0;points=[];" vertex="1" connectable="0" parent="7ZvHlYjhylcXqzKmYskj-21">
          <mxGeometry x="-0.8573" y="-2" relative="1" as="geometry">
            <mxPoint y="2" as="offset" />
          </mxGeometry>
        </mxCell>
        <mxCell id="7ZvHlYjhylcXqzKmYskj-24" style="edgeStyle=orthogonalEdgeStyle;rounded=0;orthogonalLoop=1;jettySize=auto;html=1;entryX=0;entryY=0.5;entryDx=0;entryDy=0;" edge="1" parent="1" source="7ZvHlYjhylcXqzKmYskj-15" target="7ZvHlYjhylcXqzKmYskj-26">
          <mxGeometry relative="1" as="geometry">
            <mxPoint x="640" y="600" as="targetPoint" />
          </mxGeometry>
        </mxCell>
        <mxCell id="7ZvHlYjhylcXqzKmYskj-25" value="True" style="edgeLabel;html=1;align=center;verticalAlign=middle;resizable=0;points=[];" vertex="1" connectable="0" parent="7ZvHlYjhylcXqzKmYskj-24">
          <mxGeometry x="-0.3126" y="3" relative="1" as="geometry">
            <mxPoint x="-19" y="3" as="offset" />
          </mxGeometry>
        </mxCell>
        <mxCell id="7ZvHlYjhylcXqzKmYskj-15" value="Als er alle namen als opgegeven &lt;br&gt;zijn" style="rhombus;whiteSpace=wrap;html=1;" vertex="1" parent="1">
          <mxGeometry x="360" y="545" width="110" height="110" as="geometry" />
        </mxCell>
        <mxCell id="7ZvHlYjhylcXqzKmYskj-36" style="edgeStyle=orthogonalEdgeStyle;rounded=0;orthogonalLoop=1;jettySize=auto;html=1;" edge="1" parent="1" source="7ZvHlYjhylcXqzKmYskj-26">
          <mxGeometry relative="1" as="geometry">
            <mxPoint x="690" y="680" as="targetPoint" />
          </mxGeometry>
        </mxCell>
        <mxCell id="7ZvHlYjhylcXqzKmYskj-26" value="Schud de lijst en geef iedereen de persoon na hem" style="whiteSpace=wrap;html=1;aspect=fixed;" vertex="1" parent="1">
          <mxGeometry x="650" y="560" width="80" height="80" as="geometry" />
        </mxCell>
        <mxCell id="7ZvHlYjhylcXqzKmYskj-28" value="Vraag hoeveel personen er meedoen" style="whiteSpace=wrap;html=1;aspect=fixed;" vertex="1" parent="1">
          <mxGeometry x="370" y="90" width="80" height="80" as="geometry" />
        </mxCell>
        <mxCell id="7ZvHlYjhylcXqzKmYskj-40" value="EIND" style="ellipse;whiteSpace=wrap;html=1;" vertex="1" parent="1">
          <mxGeometry x="630" y="780" width="120" height="78" as="geometry" />
        </mxCell>
        <mxCell id="7ZvHlYjhylcXqzKmYskj-45" style="edgeStyle=orthogonalEdgeStyle;rounded=0;orthogonalLoop=1;jettySize=auto;html=1;entryX=0.5;entryY=0;entryDx=0;entryDy=0;" edge="1" parent="1" source="7ZvHlYjhylcXqzKmYskj-43" target="7ZvHlYjhylcXqzKmYskj-40">
          <mxGeometry relative="1" as="geometry" />
        </mxCell>
        <mxCell id="7ZvHlYjhylcXqzKmYskj-43" value="print de namen met lootjes" style="rounded=1;whiteSpace=wrap;html=1;" vertex="1" parent="1">
          <mxGeometry x="630" y="680" width="120" height="58" as="geometry" />
        </mxCell>
      </root>
    </mxGraphModel>
  </diagram>
</mxfile>
